<?xml version="1.0" encoding="utf-8"?>
<!-- Generator: Adobe Illustrator 16.0.0, SVG Export Plug-In . SVG Version: 6.00 Build 0)  -->
<!DOCTYPE svg PUBLIC "-//W3C//DTD SVG 1.1//EN" "http://www.w3.org/Graphics/SVG/1.1/DTD/svg11.dtd">
<svg version="1.1" id="Layer_1" xmlns="http://www.w3.org/2000/svg" xmlns:xlink="http://www.w3.org/1999/xlink" x="0px" y="0px"
	 width="367.151px" height="465.114px" viewBox="122.424 90 367.151 465.114" enable-background="new 122.424 90 367.151 465.114"
	 xml:space="preserve">
<g>
	<g>
		<path d="M383.473,426.839l-13.439,15.888c55.962,7.111,95.068,23.237,95.068,42.014c0,25.361-71.236,45.918-159.102,45.918
			c-87.865,0-159.102-20.557-159.102-45.918c0-18.776,39.113-34.902,95.068-42.014l-13.439-15.888
			c-62.614,10.722-106.103,33.953-106.103,60.961c0,37.173,82.192,67.314,183.576,67.314s183.575-30.142,183.575-67.314
			C489.575,460.792,446.093,437.561,383.473,426.839z M459.875,243.875C459.875,158.893,390.977,90,306,90
			c-84.982,0-153.875,68.893-153.875,153.875S306,500.334,306,500.334S459.875,328.857,459.875,243.875z M306,115.643
			c70.809,0,128.227,58.134,128.227,129.836C434.227,317.181,306,461.863,306,461.863S177.774,317.174,177.774,245.473
			C177.774,173.771,235.186,115.643,306,115.643z M370.119,231.054c0-35.41-28.703-64.119-64.119-64.119
			c-35.404,0-64.113,28.709-64.113,64.119c0,35.404,28.709,64.113,64.113,64.113C341.416,295.167,370.119,266.458,370.119,231.054z
			 M267.53,231.054c0-21.249,17.228-38.47,38.47-38.47c21.255,0,38.471,17.222,38.471,38.47c0,21.243-17.216,38.464-38.471,38.47
			C284.751,269.524,267.53,252.296,267.53,231.054z"/>
	</g>
</g>
</svg>
