<?xml version="1.0" encoding="utf-8"?>
<!-- Generator: Adobe Illustrator 16.0.0, SVG Export Plug-In . SVG Version: 6.00 Build 0)  -->
<!DOCTYPE svg PUBLIC "-//W3C//DTD SVG 1.1//EN" "http://www.w3.org/Graphics/SVG/1.1/DTD/svg11.dtd">
<svg version="1.1" id="Layer_1" xmlns="http://www.w3.org/2000/svg" xmlns:xlink="http://www.w3.org/1999/xlink" x="0px" y="0px"
	 width="550.791px" height="550.792px" viewBox="30.605 44.096 550.791 550.792"
	 enable-background="new 30.605 44.096 550.791 550.792" xml:space="preserve">
<g>
	<path d="M351.655,44.241c-6.757,0.257-12.026,5.937-11.775,12.693c0.258,6.756,5.961,12.057,12.688,11.775
		c53.097-2.16,106.065,19.443,145.423,58.795c39.358,39.364,60.79,92.363,58.801,145.423c-0.257,6.756,5.019,12.436,11.775,12.693
		c0.153,0.006,0.313,0.006,0.465,0.006c6.549,0,11.978-5.184,12.222-11.781c2.24-59.841-21.799-119.493-65.955-163.649
		C471.143,66.04,411.46,41.989,351.655,44.241z"/>
	<path d="M437.188,188.312c21.714,21.714,34.406,50.325,36.701,82.743c0.459,6.45,5.833,11.371,12.197,11.371
		c0.288,0,0.582-0.012,0.882-0.03c6.744-0.478,11.823-6.334,11.346-13.079c-2.723-38.378-17.87-72.375-43.813-98.312
		c-25.943-25.943-59.934-41.096-98.312-43.813c-6.732-0.417-12.602,4.602-13.072,11.346c-0.478,6.75,4.602,12.601,11.346,13.079
		C386.863,153.905,415.469,166.604,437.188,188.312z"/>
	<path d="M491.619,385.418c-13.451-13.452-31.334-20.857-50.354-20.857c-19.021,0-36.904,7.405-50.355,20.857l-21.886,21.879
		c-10.141,10.141-26.205,11.42-38.194,3.035c-22.24-15.557-43.391-33.323-62.871-52.803l0,0
		c-19.498-19.504-37.265-40.655-52.797-62.865c-8.384-11.989-7.111-28.054,3.036-38.195l21.879-21.885
		c27.767-27.76,27.767-72.938,0-100.698l-49.449-49.45C177.18,70.991,159.297,63.58,140.271,63.58
		c-19.021,0-36.904,7.411-50.349,20.857l-22.546,22.54c-27.895,27.907-41.157,67.075-35.478,104.78
		c7.821,51.953,27.154,105.044,55.882,153.49c20.618,34.964,45.998,67.607,75.429,97.039c29.425,29.425,62.069,54.798,97.015,75.41
		c48.477,28.746,101.562,48.073,153.508,55.895c5.759,0.868,11.549,1.297,17.332,1.297c32.081,0,63.819-13.134,87.454-36.781
		l22.54-22.54c13.452-13.445,20.857-31.328,20.857-50.355c0-19.015-7.405-36.897-20.857-50.355L491.619,385.418z M523.756,518.266
		l-22.546,22.54c-22.424,22.436-53.759,33.115-83.826,28.586c-48.862-7.356-98.887-25.6-144.701-52.761
		c-33.188-19.577-64.199-43.685-92.167-71.646c-27.975-27.975-52.081-58.984-71.665-92.191
		c-27.148-45.778-45.386-95.809-52.749-144.677c-4.522-30.056,6.163-61.396,28.586-83.826l22.54-22.54
		c18.226-18.219,47.865-18.219,66.084,0l49.449,49.45c18.219,18.219,18.219,47.864,0,66.083l-21.879,21.885
		c-18.556,18.55-20.985,47.803-5.783,69.535c16.353,23.378,35.043,45.637,55.545,66.145l8.66-8.654l-8.654,8.654
		c20.483,20.49,42.742,39.174,66.151,55.551c21.744,15.208,50.992,12.772,69.535-5.783l21.886-21.879
		c8.825-8.825,20.563-13.685,33.042-13.685c12.479,0,24.217,4.859,33.042,13.685l49.449,49.443
		c8.825,8.825,13.685,20.563,13.685,33.042S532.581,509.435,523.756,518.266z"/>
</g>
</svg>
