<svg width="206" height="233" viewBox="0 0 206 233" fill="none" xmlns="http://www.w3.org/2000/svg">
<path d="M31.8464 225.917C30.4227 226.321 29.2763 226.708 28.0714 227.045C27.7972 227.115 27.4705 227.241 27.1962 227.31C26.7032 227.445 26.1982 227.365 25.894 226.896C25.5899 226.427 25.7877 225.984 26.1579 225.639C27.2684 224.605 28.4344 223.568 29.5449 222.534C29.8102 222.303 30.02 222.076 30.3872 221.677C29.2049 221.419 28.1889 221.151 27.1729 220.884C26.3263 220.661 25.4272 220.494 24.63 220.161C24.2913 220.071 23.9347 219.659 23.8643 219.393C23.7789 218.858 24.269 218.668 24.7095 218.59C25.9234 218.414 27.1957 218.29 28.4095 218.114C29.1828 218.017 29.956 217.92 30.9481 217.757C30.6964 217.231 30.5645 216.86 30.3772 216.492C29.8709 215.386 29.309 214.283 28.8056 213.231C28.6183 212.863 28.4865 212.492 28.4101 212.119C28.2663 211.532 28.2304 210.886 28.8194 210.475C29.3004 210.125 29.9748 210.249 30.6206 210.861C31.6785 211.883 32.6254 212.911 33.6308 213.989C33.926 214.297 34.2212 214.604 34.5748 214.963C35.0665 213.801 35.5581 212.64 36.0557 211.586C36.5504 210.478 37.0869 210.124 37.7642 210.303C38.4415 210.481 38.8071 211.055 38.759 212.192C38.717 213.436 38.6194 214.684 38.5773 215.929C38.5518 216.47 38.6372 217.006 38.6761 217.706C39.5018 217.552 40.1671 217.515 40.8265 217.37C41.9235 217.093 42.962 216.766 44.059 216.489C44.4441 216.413 44.8292 216.338 45.2174 216.316C45.7748 216.339 46.2858 216.527 46.485 217.11C46.6813 217.639 46.4834 218.082 46.0548 218.376C45.0462 219.242 44.0286 219.947 43.0695 220.703C42.6409 220.997 42.2122 221.29 41.854 221.85C43.0858 221.998 44.2592 222.095 45.491 222.243C45.996 222.323 46.5534 222.346 47.0614 222.479C47.7942 222.655 48.1508 223.067 48.1253 223.609C48.0473 224.207 47.6187 224.501 47.0702 224.639C45.693 224.878 44.3683 225.06 42.9881 225.244C42.6584 225.317 42.2703 225.338 41.7713 225.366C41.9615 225.788 42.1458 226.101 42.3301 226.415C42.8186 227.198 43.307 227.981 43.74 228.768C44.2929 229.709 44.3228 230.248 43.7893 230.655C43.3082 231.006 42.7477 230.929 41.8772 230.275C41.065 229.672 40.2529 229.069 39.4407 228.466C38.8593 228.012 38.2255 227.615 37.5302 227.114C37.2649 227.345 36.9997 227.576 36.7928 227.857C35.5279 229.116 34.266 230.428 33.0011 231.687C32.5785 232.088 32.1469 232.328 31.5745 232.036C31.0021 231.744 30.9752 231.259 31.0561 230.715C31.305 229.188 31.554 227.662 31.8464 225.917Z" fill="#00BCD4"/>
<path d="M205.769 94.5165C204.615 95.2626 203.19 95.3857 201.753 95.3671C198.879 95.3294 196.149 94.49 193.549 93.4956C187.08 90.9712 181.028 87.4773 175.236 83.6743C170.737 80.6916 166.29 77.4892 161.79 74.507C161.48 74.2469 161.183 74.1295 160.355 73.6986C160.766 75.0981 161.049 75.8627 161.268 76.7054C164.47 86.9046 167.036 97.2308 167.777 108.002C168.054 111.925 167.979 115.95 167.609 119.858C167.384 122.174 166.666 124.604 165.639 126.774C163.414 131.632 158.995 133.594 153.857 132.317C150.337 131.475 147.234 129.663 144.52 127.386C141.34 124.72 138.433 121.887 135.384 119.065C134.996 118.74 134.673 118.338 133.885 117.545C134.142 118.815 134.282 119.592 134.423 120.369C136.027 127.118 137.28 133.971 137.822 140.885C138.162 145.52 138.281 150.102 137.468 154.694C137.061 157.384 136.279 159.892 134.979 162.229C132.666 166.089 128.868 167.782 124.469 166.729C121.389 165.991 118.661 164.362 116.127 162.501C109.754 157.815 104.432 152.034 99.1751 146.175C97.4961 144.239 95.8171 142.304 93.7885 140.471C94.0067 141.313 94.2248 142.155 94.5078 142.92C97.2604 151.292 99.7155 159.547 100.991 168.263C101.54 172.019 101.804 175.799 101.782 179.605C101.765 181.831 101.254 184.171 100.499 186.174C98.8715 190.478 95.3191 192.508 90.7496 191.972C87.8502 191.649 85.3024 190.435 82.8838 189.066C77.5823 185.938 72.865 182.113 68.6791 177.812C63.7957 172.925 59.0294 167.742 54.2105 162.777C53.6551 162.18 53.0996 161.582 52.1293 161.164C52.2702 161.941 52.4112 162.718 52.6293 163.561C54.76 172.202 56.2554 180.971 56.4043 189.928C56.4101 193.229 56.1307 196.554 55.7743 199.814C55.6428 200.759 55.5364 201.988 53.892 202.059C53.7765 201.566 53.5962 201.151 53.7005 200.711C54.3724 195.343 53.9575 189.854 53.4123 184.519C52.4233 174.989 50.4497 165.687 47.6987 156.525C47.3002 155.268 46.6166 154.036 45.8031 152.958C31.8446 135.583 19.105 117.384 9.01043 97.4489C6.04538 91.5347 3.3652 85.5957 1.65693 79.2855C0.924582 76.6938 0.477097 74.0775 0.172085 71.4488C-0.199562 69.687 -0.0789154 67.8107 1.64483 67.0153C3.51104 66.2076 5.0493 67.3658 6.09527 68.6385C9.07811 72.3266 12.2035 76.0024 14.7842 80.0124C29.0443 101.595 40.2066 124.667 48.2712 149.227C49.0687 151.742 50.2678 153.934 52.0245 155.934C58.3528 163.351 64.8231 170.755 72.0851 177.373C76.0656 180.975 80.1104 184.499 84.9215 186.952C86.4994 187.748 88.2072 188.389 89.8894 188.745C93.9141 189.616 96.8567 187.997 97.7202 183.976C98.3076 181.7 98.5854 179.165 98.3704 176.743C97.9278 171.758 97.2006 166.798 96.1888 161.863C93.8688 151.084 90.1495 140.715 86.0153 130.524C85.6546 129.694 85.1391 128.735 84.5709 127.994C72.7061 112.375 62.2548 95.7003 51.6739 79.1802C43.9187 67.0079 36.1514 54.6926 29.4852 41.8518C28.1058 39.2442 26.8555 36.4826 25.7483 33.708C25.3875 32.8782 25.1564 31.8939 25.2108 30.884C25.2142 29.305 26.6404 28.392 28.0757 29.2005C29.0583 29.7613 29.9113 30.4767 30.7642 31.1921C35.7906 36.066 39.8825 41.739 44.0395 47.3345C62.5266 72.0672 77.0595 99.1526 88.8446 127.624C89.5782 129.426 90.5199 131.138 91.7983 132.606C96.9508 138.905 102.091 145.061 107.438 151.127C110.783 154.856 114.466 158.34 118.72 160.984C120.388 161.988 122.12 162.914 123.971 163.543C127.891 164.853 130.859 163.519 132.615 159.851C133.525 157.977 134.125 155.844 134.376 153.813C134.708 150.268 134.896 146.736 134.8 143.228C134.383 132.858 132.204 122.857 129.389 112.983C129.171 112.141 128.668 111.323 128.177 110.649C112.217 90.935 98.1504 69.9095 85.0943 48.1507C78.025 36.4207 71.3048 24.5892 65.2594 12.2682C64.1122 9.85626 63.03 7.36673 62.0903 4.86478C61.5365 3.47774 61.1127 1.93565 62.6689 0.867554C64.2247 -0.200009 65.5304 0.763026 66.551 1.75101C69.8458 4.90957 73.2057 7.99062 76.163 11.3943C96.3503 34.2571 112.324 59.7813 123.941 87.9805C126.672 94.4892 128.703 101.202 131.226 107.801C131.678 108.838 132.063 109.953 132.709 110.758C137.035 115.836 141.427 120.837 146.869 124.743C148.86 126.149 151.058 127.465 153.438 128.407C158.044 130.16 161.349 128.582 163.016 123.916C163.772 121.913 164.294 119.714 164.39 117.554C164.528 113.451 164.524 109.361 164.158 105.231C162.966 93.4221 159.949 82.0583 155.869 70.8585C155.405 69.6788 154.682 68.8085 153.751 68.0281C143.916 59.9115 136.428 49.9403 130.418 38.8361C129.206 36.5017 128.189 33.9347 127.392 31.4201C126.916 30.0981 126.854 28.5969 127.013 27.148C127.303 24.7541 129.351 23.5721 131.459 24.6806C133.192 25.607 134.886 26.8953 136.229 28.2858C140.092 32.1848 143.228 36.7923 146.015 41.5015C150.801 49.3389 154.551 57.6256 157.963 66.1557C158.337 67.1281 158.943 68.2956 159.718 68.9461C170.744 77.5336 181.951 85.7464 194.549 91.8303C196.204 92.6911 197.99 93.3973 199.75 93.8187C201.445 94.3176 203.529 94.3519 205.769 94.5165ZM65.4821 5.07289C69.3875 19.1581 116.495 94.6547 125.374 101.706C123.002 91.148 108.254 61.642 95.9041 42.9788C86.9482 29.4034 77.0582 16.6266 65.4821 5.07289ZM3.34909 69.2356C3.14174 69.3253 2.86945 69.4925 2.66211 69.5822C2.73794 70.4368 2.52884 71.3161 2.74711 72.1583C3.24686 74.5548 3.60415 76.9637 4.45363 79.2581C6.07519 83.7819 7.76163 88.2283 9.86282 92.4952C17.2738 108.07 26.6807 122.683 36.9691 136.717C39.0993 139.69 41.2816 142.443 43.4762 145.338C43.6188 145.325 43.7486 145.171 43.8911 145.158C43.5948 144.251 43.299 143.344 43.0032 142.436C36.8005 125.106 29.0162 108.559 19.7804 92.6395C15.6269 85.4649 11.486 78.4327 6.11369 72.0815C5.37784 71.0689 4.29224 70.1584 3.34909 69.2356ZM79.5999 115.652C78.2598 112.683 76.8545 109.791 75.5923 106.886C64.1865 82.6874 50.3951 59.9157 33.8163 38.8926C32.4349 37.0747 30.9236 35.412 29.4772 33.6717C30.7818 41.0933 68.4548 102.482 79.5999 115.652ZM130.43 27.6407C129.174 33.706 144.132 55.8742 151.538 61.6903C151.513 61.4049 151.565 61.1857 151.475 60.9779C147.069 50.9551 141.988 41.4205 135.196 32.8246C133.815 31.0067 132.251 29.5634 130.43 27.6407Z" fill="#00BCD4"/>
</svg>
